# xmcd CD database file
#
# Track frame offsets:
#	150
#	43332
#	90225
#	97722
#	143280
#
# Disc length: 2545 seconds
#
# Revision: 0
# Processed by: cddbd v1.5.1PL0 Copyright (c) Steve Scherf et al.
# Submitted via: CDex 1.51
#
DISCID=2c09ef05
DTITLE=Art Blakey and The Jazz Messengers - Meet You At The Jazz Corner Of The World Volume1
DYEAR=1960
DGENRE=Jazz
TTITLE0=The Opener
TTITLE1=What Know
TTITLE2=The Theme
TTITLE3='Round About Midnight
TTITLE4=The Breeze And I
EXTD=YEAR: 1960
EXTT0=
EXTT1=
EXTT2=
EXTT3=
EXTT4=
PLAYORDER=
